<?xml version="1.0" standalone="no"?>
<!DOCTYPE svg PUBLIC "-//W3C//DTD SVG 20010904//EN"
 "http://www.w3.org/TR/2001/REC-SVG-20010904/DTD/svg10.dtd">
<svg version="1.0" xmlns="http://www.w3.org/2000/svg"
 width="222.000000pt" height="222.000000pt" viewBox="0 0 222.000000 222.000000"
 preserveAspectRatio="xMidYMid meet">
<metadata>
Created by potrace 1.11, written by Peter Selinger 2001-2013
</metadata>
<g transform="translate(0.000000,222.000000) scale(0.100000,-0.100000)"
fill="#000000" stroke="none">
<path d="M1004 2209 c-2 -4 0 -10 6 -14 5 -3 10 -11 10 -16 0 -6 -7 -3 -16 5
-19 20 -25 20 -18 2 5 -14 -37 -31 -66 -27 -10 2 -8 -2 5 -13 19 -13 19 -15 3
-21 -10 -4 -26 -4 -35 -1 -15 5 -15 4 1 -9 18 -13 15 -20 -6 -16 -5 0 -8 -4
-8 -10 0 -5 -6 -7 -12 -3 -10 6 -10 5 -1 -8 7 -8 9 -18 5 -22 -4 -4 -7 -13 -7
-19 0 -7 -8 -11 -18 -11 -14 2 -15 -1 -6 -12 6 -8 15 -11 20 -8 16 9 10 -3 -8
-17 -9 -8 -14 -9 -10 -3 4 7 1 14 -6 17 -11 4 -12 -5 -7 -39 4 -24 3 -41 -2
-38 -4 3 -8 1 -8 -5 0 -5 -9 -8 -20 -6 -14 3 -18 0 -13 -8 10 -17 11 -47 1
-41 -5 4 -7 13 -4 21 3 8 1 11 -4 8 -6 -3 -10 -17 -10 -30 0 -13 -6 -26 -12
-29 -7 -3 -2 -3 12 1 22 5 23 4 11 -11 -8 -10 -9 -16 -3 -16 6 0 9 -7 6 -15
-4 -8 -11 -12 -18 -8 -7 3 -6 1 1 -7 11 -12 16 -11 29 6 15 18 15 18 5 -3 -14
-28 -14 -36 1 -27 7 4 8 3 4 -4 -4 -6 -13 -9 -21 -5 -11 4 -13 1 -9 -11 3 -9
10 -13 15 -10 5 3 6 -2 3 -10 -3 -9 -10 -14 -14 -13 -8 2 -10 -3 -10 -24 0 -8
4 -8 14 0 11 9 16 9 22 0 4 -8 3 -9 -4 -5 -7 4 -12 1 -12 -9 0 -9 -4 -14 -8
-11 -4 2 -14 1 -22 -4 -11 -7 -6 -9 15 -7 17 1 33 7 37 12 5 6 8 6 8 -2 0 -7
-8 -17 -17 -23 -15 -9 -14 -10 7 -4 23 6 24 6 10 -12 -14 -17 -14 -18 2 -6 9
8 15 19 12 26 -3 7 2 13 11 13 10 0 14 -6 10 -15 -4 -12 -3 -13 10 -2 8 7 12
17 9 22 -4 6 4 4 17 -3 13 -7 28 -13 33 -14 5 0 11 -7 13 -15 4 -13 3 -13 -6
0 -6 8 -11 11 -11 6 0 -5 -6 -5 -13 0 -7 5 -5 2 5 -8 10 -9 27 -14 38 -11 12
3 20 0 20 -6 0 -7 -4 -10 -9 -6 -5 3 -12 1 -16 -4 -3 -6 -12 -8 -20 -4 -8 3
-15 1 -15 -5 0 -11 18 -11 38 1 7 5 12 4 12 -2 0 -10 -7 -13 -26 -10 -4 0 -11
-5 -15 -13 -7 -10 -9 -10 -9 0 0 6 -5 12 -11 12 -6 0 -9 -7 -5 -15 4 -13 2
-14 -14 -5 -16 9 -18 8 -14 -5 4 -10 0 -15 -11 -15 -10 0 -14 5 -9 13 4 6 -2
4 -14 -7 -19 -16 -22 -36 -6 -36 3 0 2 5 -2 12 -5 7 -3 8 5 4 9 -6 9 -12 -3
-25 -9 -10 -13 -21 -9 -25 4 -4 0 -4 -10 0 -19 7 -24 -11 -4 -20 6 -3 2 -3
-10 0 -14 3 -23 1 -23 -6 0 -6 4 -9 8 -6 4 2 14 1 22 -5 9 -5 10 -9 4 -9 -17
0 -25 -28 -12 -36 7 -5 8 -2 3 7 -8 12 -6 12 8 0 12 -9 14 -17 7 -26 -5 -6 -7
-15 -3 -18 3 -4 1 -7 -5 -7 -7 0 -12 -7 -12 -15 0 -8 5 -15 11 -15 5 0 7 4 4
10 -4 6 1 7 11 3 16 -6 15 -8 -4 -16 -24 -11 -31 -33 -8 -24 11 4 13 1 9 -10
-4 -10 -2 -14 4 -10 8 5 10 -10 8 -45 -3 -34 -1 -47 5 -38 7 11 9 10 7 -7 0
-12 -4 -20 -8 -17 -4 2 -10 0 -13 -5 -4 -5 5 -8 19 -6 14 1 25 -2 25 -6 0 -5
-9 -9 -20 -9 -11 0 -20 -4 -20 -10 0 -5 6 -7 14 -4 19 7 31 -15 17 -29 -9 -9
-11 -7 -6 8 6 18 5 18 -5 2 -9 -13 -8 -21 4 -33 18 -18 17 -15 21 -71 1 -29
-3 -47 -13 -55 -13 -11 -14 -11 -7 1 5 10 4 12 -4 7 -9 -6 -9 -11 0 -22 10
-12 9 -13 -5 -8 -18 7 -19 -14 -1 -29 6 -5 3 -7 -7 -4 -9 3 -22 -2 -30 -10
-11 -15 -11 -16 5 -10 11 4 16 3 12 -3 -3 -6 -12 -10 -20 -10 -8 0 -17 -5 -21
-12 -5 -8 -2 -9 12 -4 10 4 15 4 11 0 -4 -4 -1 -14 5 -23 10 -13 10 -14 -2 -4
-11 10 -17 9 -32 -4 -20 -18 -24 -33 -8 -33 5 0 9 5 7 11 -1 6 4 14 11 16 10
4 10 -1 0 -21 -6 -15 -17 -25 -24 -22 -7 3 -10 -2 -7 -14 3 -12 -2 -20 -14
-23 -16 -4 -16 -5 0 -6 23 -1 21 -15 -5 -35 -16 -12 -18 -16 -5 -12 9 3 17 1
17 -4 0 -6 -5 -10 -12 -10 -6 0 -8 -3 -5 -7 4 -3 2 -12 -5 -20 -6 -7 -12 -26
-13 -41 -1 -15 -5 -36 -10 -46 -5 -10 -9 -31 -10 -45 -1 -14 -7 -25 -13 -23
-7 1 -12 1 -13 0 0 -2 -3 -23 -6 -47 -4 -33 -2 -42 7 -36 9 5 11 4 6 -4 -4 -6
-12 -8 -18 -5 -6 4 -6 0 1 -13 11 -21 6 -33 -13 -33 -6 0 -5 4 2 9 11 7 11 9
-2 14 -9 4 -15 3 -15 -1 1 -4 0 -9 -1 -12 -8 -22 -7 -46 3 -52 9 -6 9 -8 0 -8
-7 0 -12 -11 -11 -25 1 -14 6 -25 11 -25 4 0 5 -5 2 -10 -4 -6 5 -10 20 -10
23 0 25 -3 20 -22 -5 -18 -4 -20 4 -8 9 13 12 13 20 1 5 -8 16 -11 25 -8 8 3
18 1 22 -5 4 -6 3 -8 -4 -4 -6 3 -13 2 -17 -3 -8 -13 46 -3 64 12 12 10 13 9
2 -11 -12 -22 -11 -23 8 -13 14 8 22 8 27 -1 5 -7 3 -8 -6 -3 -9 5 -11 4 -6
-4 6 -9 11 -9 24 1 12 10 14 10 8 1 -4 -8 -2 -13 4 -13 6 0 9 -4 6 -9 -3 -4 9
-7 26 -5 30 4 31 3 12 -12 -16 -13 -16 -15 -2 -10 27 8 49 -46 25 -61 -6 -3
-7 -1 -3 5 3 6 2 13 -3 16 -14 9 -7 -19 9 -38 10 -13 29 -17 86 -15 73 2 86
10 54 36 -13 10 -13 11 0 10 8 -2 22 -6 30 -11 12 -7 13 -6 3 5 -17 17 -17 32
0 23 7 -5 7 -2 -2 10 -12 14 -12 17 0 14 7 -2 20 -9 27 -15 7 -7 18 -13 25
-13 6 0 2 6 -9 14 -29 22 -13 26 21 5 17 -11 24 -19 18 -19 -7 0 -13 -5 -13
-11 0 -5 5 -7 10 -4 5 3 10 -1 10 -10 0 -12 -5 -15 -17 -11 -17 6 -17 5 0 -8
12 -9 45 -14 97 -14 72 0 78 1 75 19 -2 10 1 22 7 25 6 4 8 3 5 -2 -3 -6 -1
-16 4 -24 9 -15 8 -3 -5 57 -3 13 0 26 6 29 6 4 8 2 4 -4 -4 -6 1 -10 13 -9
15 1 17 5 11 17 -6 12 -5 17 5 17 8 0 11 -5 8 -11 -3 -6 0 -5 8 2 7 6 21 12
32 12 10 0 16 4 12 9 -3 5 -1 12 4 15 10 7 9 -13 -1 -30 -4 -6 -1 -11 7 -11 8
0 12 4 10 8 -3 3 3 13 12 20 10 8 14 9 10 2 -4 -6 -3 -14 2 -17 5 -4 13 -1 16
5 4 5 13 8 21 5 8 -3 11 0 7 10 -3 7 0 14 7 14 9 0 9 4 -1 17 -13 15 -12 15
11 3 22 -12 24 -11 13 2 -11 12 -9 18 8 34 12 10 23 18 25 17 16 -11 24 4 24
43 0 25 -4 43 -9 39 -5 -3 -13 -1 -16 5 -4 6 -1 9 6 8 7 -2 15 5 17 15 2 9 -2
17 -8 17 -6 0 -8 -6 -4 -12 4 -7 4 -10 -1 -6 -4 4 -15 2 -24 -4 -11 -9 -10 -6
2 9 14 16 15 22 5 27 -7 3 -2 3 12 0 17 -4 21 -2 11 4 -11 8 -11 11 0 16 8 3
4 3 -8 1 -24 -6 -40 9 -22 21 8 5 9 3 4 -7 -5 -8 -4 -11 0 -6 5 4 10 17 12 29
3 18 1 19 -12 8 -9 -7 -18 -10 -22 -6 -3 3 -2 6 4 6 5 0 9 13 9 29 0 20 -4 27
-13 24 -7 -3 -13 0 -13 6 0 10 14 15 33 12 5 -1 6 3 2 9 -4 6 -16 8 -27 4 -14
-4 -18 -2 -14 5 4 6 1 21 -6 33 -16 30 -17 40 -4 57 9 12 8 13 -3 6 -11 -6
-13 -4 -8 8 3 9 1 19 -5 23 -6 4 -8 3 -4 -4 3 -6 2 -13 -3 -16 -10 -7 -9 20 2
30 13 14 7 26 -7 15 -8 -7 -17 -8 -20 -3 -3 6 1 15 9 22 8 7 15 18 15 24 0 6
-5 4 -10 -4 -7 -12 -11 -10 -19 10 -5 14 -10 19 -10 11 -1 -8 -4 -11 -7 -8 -4
4 -1 14 7 24 12 14 12 16 0 8 -11 -6 -13 -4 -8 8 3 9 2 19 -4 22 -5 4 -7 11
-4 16 3 5 -1 6 -10 3 -11 -5 -14 -2 -9 10 3 9 11 13 17 9 6 -3 7 -1 3 6 -6 9
-11 9 -21 1 -9 -8 -14 -6 -19 5 -4 10 -2 14 5 9 8 -4 9 1 4 15 -4 12 -2 28 4
35 8 9 7 13 -4 13 -8 0 -12 -4 -9 -8 2 -4 1 -10 -4 -13 -4 -2 -8 6 -8 19 0 15
5 21 13 18 7 -3 13 0 13 6 0 6 -6 11 -13 11 -7 0 -13 11 -13 25 0 15 6 25 14
25 11 0 12 -3 3 -14 -9 -11 -9 -16 1 -22 7 -4 10 -4 6 1 -4 4 -3 14 3 21 8 9
5 15 -9 23 -11 6 -22 7 -26 4 -3 -3 -6 -3 -6 1 0 3 10 11 23 16 17 7 18 9 5 9
-10 1 -18 6 -18 12 0 5 5 7 10 4 6 -3 10 -1 10 4 0 6 -5 11 -12 11 -6 0 -4 6
6 13 17 13 13 47 -6 47 -5 0 -3 6 4 14 9 9 13 35 12 84 -2 58 0 70 12 65 10
-4 12 0 8 11 -3 9 -1 16 5 16 6 0 11 5 11 11 0 5 -4 7 -10 4 -5 -3 -10 -2 -10
4 0 5 6 12 13 14 9 4 8 8 -3 17 -12 10 -11 11 8 7 12 -3 22 -1 22 4 0 5 -5 9
-11 9 -5 0 -7 5 -4 10 5 8 12 7 23 -2 14 -11 14 -10 -1 12 -20 29 -22 40 -4
36 6 -1 9 -1 4 1 -4 3 -4 10 -1 15 5 7 2 8 -6 3 -8 -5 -11 -3 -8 6 3 8 10 13
16 12 7 -2 9 4 5 14 -4 11 -8 13 -11 5 -4 -14 -28 -16 -37 -3 -3 5 0 13 6 17
8 4 9 3 5 -4 -10 -17 -1 -15 14 3 10 12 8 14 -8 10 -24 -4 -65 22 -56 37 4 7
2 8 -4 4 -6 -4 -9 -14 -6 -24 3 -9 -2 -6 -10 8 -8 14 -15 19 -16 11 0 -8 -8
-4 -21 10 -11 13 -18 19 -15 12 4 -7 -1 -11 -14 -10 -22 1 -27 13 -7 20 7 4 8
6 1 6 -6 1 -17 -6 -24 -14 -12 -15 -4 -20 23 -16 4 0 7 -3 7 -9 0 -14 -13 -13
-35 3 -12 10 -14 16 -7 21 7 4 12 12 12 18 0 6 -7 5 -17 -3 -14 -12 -16 -12
-8 0 6 11 4 13 -10 7 -16 -6 -16 -4 -4 10 8 10 15 12 17 5 2 -6 13 0 24 14 11
14 25 25 31 24 9 0 9 -2 0 -5 -7 -3 -11 -11 -9 -17 1 -7 1 -9 -1 -4 -5 8 -23
0 -23 -12 0 -13 49 -7 55 7 3 8 0 10 -8 6 -7 -4 -7 -1 2 7 10 11 15 11 18 2 7
-20 19 -15 20 7 1 13 -2 18 -9 14 -7 -4 -8 -2 -4 5 6 9 11 9 22 0 12 -10 13
-9 9 4 -4 8 -1 18 6 23 8 5 10 3 4 -7 -7 -11 -6 -12 6 -2 10 8 14 23 11 43 -2
16 0 30 5 30 5 0 10 7 10 15 0 8 -4 15 -9 15 -4 0 -8 -5 -8 -12 0 -6 -2 -9 -5
-6 -12 11 7 37 23 31 14 -4 14 -3 3 5 -8 6 -20 8 -27 5 -6 -2 -15 1 -19 7 -3
6 -3 10 2 9 20 -3 34 2 28 11 -4 6 -11 7 -17 4 -7 -4 -8 -2 -4 4 4 6 14 8 23
5 12 -5 14 -3 7 8 -16 26 -14 40 5 30 14 -8 17 -5 17 13 0 12 -6 23 -13 23
-10 0 -10 -4 0 -16 10 -14 10 -14 -5 -3 -17 13 -14 47 3 36 5 -3 6 3 2 12 -6
15 -7 15 -20 -2 -13 -18 -14 -17 -8 7 4 18 1 29 -12 39 -15 12 -16 12 -5 0 6
-8 12 -18 12 -24 0 -5 -6 -1 -14 9 -7 10 -11 27 -8 38 4 15 2 18 -8 12 -9 -5
-11 -4 -6 4 4 6 12 8 18 5 6 -4 6 1 -1 14 -13 25 -14 35 -3 28 5 -3 9 1 9 9 0
8 -9 17 -19 21 -21 6 -24 30 -5 38 6 3 1 3 -12 0 -16 -4 -21 -3 -17 5 5 7 -1
11 -14 11 -12 0 -19 4 -16 8 2 4 -5 9 -17 9 -17 2 -19 0 -7 -7 8 -5 10 -10 5
-10 -6 0 -17 6 -23 12 -10 10 -15 10 -22 -2 -6 -9 -10 -10 -10 -3 0 6 -8 12
-17 12 -44 1 -53 4 -43 16 7 8 -7 11 -50 12 -39 1 -60 -3 -60 -11 0 -8 -2 -8
-8 0 -8 12 -40 15 -48 3z m40 -15 c3 -8 2 -12 -4 -9 -6 3 -10 10 -10 16 0 14
7 11 14 -7z m96 6 c8 -5 11 -10 5 -10 -5 0 -17 5 -25 10 -8 5 -10 10 -5 10 6
0 17 -5 25 -10z m264 -486 c3 -8 2 -12 -4 -9 -6 3 -10 10 -10 16 0 14 7 11 14
-7z m-396 -6 c-2 -7 3 -13 10 -14 6 -1 17 -2 22 -3 6 0 10 -7 9 -13 -4 -36 2
-59 14 -52 8 5 7 2 -2 -9 -10 -13 -17 -14 -27 -6 -10 8 -12 6 -9 -13 4 -21 3
-21 -9 -5 -17 21 -24 22 -22 1 0 -9 -5 -19 -13 -22 -10 -3 -12 0 -8 12 8 20
-2 48 -14 40 -5 -3 -9 0 -9 5 0 6 5 11 10 11 6 0 10 5 10 11 0 5 -4 7 -10 4
-5 -3 -10 -1 -10 6 0 6 8 9 20 6 11 -3 20 -1 20 5 0 5 9 6 20 3 11 -3 20 -2
20 4 0 5 -13 8 -29 6 -29 -4 -29 -3 -13 16 19 22 23 24 20 7z m239 6 c-3 -3
-12 -4 -19 -1 -8 3 -5 6 6 6 11 1 17 -2 13 -5z m-20 -29 c0 -9 -5 -14 -11 -12
-6 3 -19 0 -28 -5 -29 -15 -20 0 10 16 15 8 27 15 28 16 0 0 1 -7 1 -15z
m-293 -23 c3 -5 -1 -9 -9 -9 -8 0 -12 4 -9 9 3 4 7 8 9 8 2 0 6 -4 9 -8z m306
-12 c-6 -11 -13 -20 -16 -20 -2 0 0 9 6 20 6 11 13 20 16 20 2 0 0 -9 -6 -20z
m38 6 c-7 -8 -15 -12 -17 -11 -5 6 10 25 20 25 5 0 4 -6 -3 -14z m-68 -6 c0
-5 -5 -10 -11 -10 -5 0 -7 5 -4 10 3 6 8 10 11 10 2 0 4 -4 4 -10z m-26 -16
c3 -8 2 -12 -4 -9 -6 3 -10 10 -10 16 0 14 7 11 14 -7z m156 -74 c0 -5 -5 -10
-11 -10 -5 0 -7 5 -4 10 3 6 8 10 11 10 2 0 4 -4 4 -10z m66 -376 c0 -13 -2
-22 -5 -19 -3 3 -6 17 -7 31 0 13 2 22 5 19 3 -3 6 -17 7 -31z m4 -85 c0 -5
-4 -9 -8 -9 -5 0 -9 7 -9 15 0 8 4 12 9 9 4 -3 8 -9 8 -15z m35 -308 c3 -5 2
-12 -3 -15 -5 -3 -9 1 -9 9 0 17 3 19 12 6z m-767 -361 c-7 -10 -14 -18 -15
-16 -6 6 9 36 18 36 5 0 4 -9 -3 -20z m-28 -115 c0 -2 -6 -5 -13 -8 -8 -3 -14
1 -14 8 0 7 6 11 14 8 7 -3 13 -6 13 -8z m846 -173 c-18 -16 -18 -16 -6 6 6
13 14 21 18 18 3 -4 -2 -14 -12 -24z m-561 -130 c-3 -3 -11 0 -18 7 -9 10 -8
11 6 5 10 -3 15 -9 12 -12z"/>
<path d="M847 2055 c-4 -8 -1 -17 6 -21 7 -4 9 -4 5 1 -4 4 -3 14 3 22 7 8 8
13 1 13 -5 0 -12 -7 -15 -15z"/>
<path d="M1430 1750 c-9 -6 -10 -10 -3 -10 6 0 15 5 18 10 8 12 4 12 -15 0z"/>
<path d="M1410 1549 c0 -5 5 -7 10 -4 6 3 10 8 10 11 0 2 -4 4 -10 4 -5 0 -10
-5 -10 -11z"/>
<path d="M800 1490 c-9 -6 -10 -10 -3 -10 6 0 15 5 18 10 8 12 4 12 -15 0z"/>
<path d="M784 1365 c-10 -8 -14 -15 -8 -15 6 0 17 7 24 15 16 19 9 19 -16 0z"/>
<path d="M1425 1269 c-11 -16 -1 -19 13 -3 7 8 8 14 3 14 -5 0 -13 -5 -16 -11z"/>
<path d="M805 1240 c3 -5 8 -10 11 -10 2 0 4 5 4 10 0 6 -5 10 -11 10 -5 0 -7
-4 -4 -10z"/>
<path d="M830 1042 c0 -7 4 -12 9 -12 5 0 8 -11 7 -25 -2 -13 1 -22 5 -19 12
7 6 41 -9 56 -9 9 -12 9 -12 0z"/>
<path d="M845 960 c3 -5 8 -10 11 -10 2 0 4 5 4 10 0 6 -5 10 -11 10 -5 0 -7
-4 -4 -10z"/>
<path d="M696 641 c-4 -5 -2 -12 3 -15 5 -4 12 -2 15 3 4 5 2 12 -3 15 -5 4
-12 2 -15 -3z"/>
<path d="M1524 595 c1 -8 7 -20 13 -26 9 -9 11 -7 8 7 -2 11 -4 22 -4 27 -1 4
-5 7 -10 7 -5 0 -8 -7 -7 -15z"/>
<path d="M678 553 c7 -3 16 -2 19 1 4 3 -2 6 -13 5 -11 0 -14 -3 -6 -6z"/>
<path d="M662 491 c-11 -7 -11 -9 0 -14 9 -3 15 1 15 9 0 8 -1 14 -1 14 -1 0
-7 -4 -14 -9z"/>
<path d="M1561 206 c-10 -11 -9 -14 1 -12 14 2 23 15 15 22 -2 2 -10 -2 -16
-10z"/>
<path d="M890 80 c0 -5 5 -10 11 -10 5 0 7 5 4 10 -3 6 -8 10 -11 10 -2 0 -4
-4 -4 -10z"/>
</g>
</svg>
